<svg width="48" height="48" viewBox="0 0 48 48" fill="none" xmlns="http://www.w3.org/2000/svg">
<rect width="48" height="48" rx="24" fill="#5A727B"/>
<path d="M21.1444 34.2798L24.0003 29.3332H14.7607C16.1429 31.7226 18.4254 33.5261 21.1444 34.2798ZM13.6697 26.6665H19.3815L14.7617 18.6647C13.8535 20.234 13.3337 22.0562 13.3337 23.9998C13.3337 24.9206 13.4503 25.8142 13.6697 26.6665ZM16.5269 16.3889L19.3815 21.3332L24.0003 13.3332C21.0898 13.3332 18.4515 14.4989 16.5269 16.3889ZM26.8563 13.7198L24.0003 18.6665H33.2399C31.8578 16.2771 29.5753 14.4736 26.8563 13.7198ZM34.331 21.3332H28.6191L33.239 29.3349C34.1471 27.7656 34.667 25.9434 34.667 23.9998C34.667 23.079 34.5503 22.1854 34.331 21.3332ZM31.4737 31.6108L28.6191 26.6665L24.0003 34.6665C26.9109 34.6665 29.5491 33.5008 31.4737 31.6108ZM24.0003 37.3332C16.6365 37.3332 10.667 31.3636 10.667 23.9998C10.667 16.636 16.6365 10.6665 24.0003 10.6665C31.3641 10.6665 37.3337 16.636 37.3337 23.9998C37.3337 31.3636 31.3641 37.3332 24.0003 37.3332ZM25.5399 21.3332H22.4607L20.9211 23.9998L22.4607 26.6665H25.5399L27.0795 23.9998L25.5399 21.3332Z" fill="white"/>
</svg>
