<svg width="48" height="48" viewBox="0 0 48 48" fill="none" xmlns="http://www.w3.org/2000/svg">
<rect width="48" height="48" rx="24" fill="#5A727B"/>
<path d="M12.9571 21.5292C12.3802 22.2676 12.0002 23.2612 12.0002 24.6667C12.0002 26.0203 12.4942 27.4025 13.2851 28.4288C14.0799 29.4603 15.0591 30 16.0002 30C17.0156 30 18.0184 29.4213 19.3846 28.5445C20.783 27.6471 22.2746 26.6667 24.0002 26.6667C25.7258 26.6667 27.2174 27.6471 28.6158 28.5445C29.9819 29.4213 30.9847 30 32.0002 30C32.9412 30 33.9204 29.4603 34.7152 28.4288C35.5062 27.4025 36.0002 26.0203 36.0002 24.6667C36.0002 23.2612 35.6202 22.2676 35.0432 21.5292C34.4527 20.7733 33.5774 20.1854 32.4355 19.7434C30.1079 18.8424 27.0015 18.6667 24.0002 18.6667C20.9989 18.6667 17.8924 18.8424 15.5648 19.7434C14.423 20.1854 13.5477 20.7733 12.9571 21.5292ZM14.6022 17.2566C17.4413 16.1576 21.0014 16 24.0002 16C26.9988 16 30.5591 16.1576 33.3982 17.2566C34.8396 17.8146 36.1727 18.6434 37.1446 19.8875C38.1302 21.149 38.6668 22.7388 38.6668 24.6667C38.6668 26.6268 37.967 28.5779 36.8275 30.0565C35.692 31.53 34.0046 32.6667 32.0002 32.6667C30.1003 32.6667 28.4584 31.6125 27.2336 30.8261C26.2928 30.2221 25.1779 29.3333 24.0002 29.3333C22.8224 29.3333 21.7074 30.2221 20.7667 30.8261C19.5419 31.6125 17.9 32.6667 16.0002 32.6667C13.9957 32.6667 12.3083 31.53 11.1728 30.0565C10.0333 28.5779 9.3335 26.6268 9.3335 24.6667C9.3335 22.7388 9.87015 21.149 10.8557 19.8875C11.8277 18.6434 13.1606 17.8146 14.6022 17.2566Z" fill="white"/>
</svg>
