<svg width="20" height="20" viewBox="0 0 20 20" fill="none" xmlns="http://www.w3.org/2000/svg">
<path d="M15.3361 3.45512C15.0988 3.45512 14.8667 3.5255 14.6694 3.65735C14.4721 3.78921 14.3183 3.97663 14.2274 4.1959C14.1366 4.41517 14.1128 4.65645 14.1592 4.88923C14.2055 5.122 14.3197 5.33582 14.4876 5.50365C14.6554 5.67147 14.8692 5.78576 15.102 5.83206C15.3348 5.87836 15.576 5.8546 15.7953 5.76377C16.0146 5.67295 16.202 5.51914 16.3339 5.3218C16.4657 5.12446 16.5361 4.89245 16.5361 4.65512C16.5361 4.33686 16.4097 4.03163 16.1846 3.80659C15.9596 3.58155 15.6544 3.45512 15.3361 3.45512ZM19.9361 5.87512C19.9166 5.04542 19.7612 4.22452 19.4761 3.44512C19.2218 2.77825 18.8261 2.1744 18.3161 1.67512C17.8209 1.16254 17.2157 0.769294 16.5461 0.525117C15.7688 0.231278 14.9469 0.0723272 14.1161 0.0551171C13.0561 -0.00488287 12.7161 -0.00488281 9.99609 -0.00488281C7.27609 -0.00488281 6.93609 -0.00488287 5.87609 0.0551171C5.04525 0.0723272 4.22344 0.231278 3.44609 0.525117C2.77777 0.771766 2.17303 1.16468 1.67609 1.67512C1.16352 2.17029 0.77027 2.77556 0.526094 3.44512C0.232255 4.22246 0.0733037 5.04427 0.0560937 5.87512C-0.00390631 6.93512 -0.00390625 7.27512 -0.00390625 9.99512C-0.00390625 12.7151 -0.00390631 13.0551 0.0560937 14.1151C0.0733037 14.946 0.232255 15.7678 0.526094 16.5451C0.77027 17.2147 1.16352 17.8199 1.67609 18.3151C2.17303 18.8256 2.77777 19.2185 3.44609 19.4651C4.22344 19.759 5.04525 19.9179 5.87609 19.9351C6.93609 19.9951 7.27609 19.9951 9.99609 19.9951C12.7161 19.9951 13.0561 19.9951 14.1161 19.9351C14.9469 19.9179 15.7688 19.759 16.5461 19.4651C17.2157 19.2209 17.8209 18.8277 18.3161 18.3151C18.8283 17.8177 19.2244 17.2133 19.4761 16.5451C19.7612 15.7657 19.9166 14.9448 19.9361 14.1151C19.9361 13.0551 19.9961 12.7151 19.9961 9.99512C19.9961 7.27512 19.9961 6.93512 19.9361 5.87512ZM18.1361 13.9951C18.1288 14.6299 18.0138 15.2588 17.7961 15.8551C17.6364 16.2903 17.38 16.6835 17.0461 17.0051C16.7217 17.3356 16.3293 17.5916 15.8961 17.7551C15.2998 17.9729 14.6709 18.0878 14.0361 18.0951C13.0361 18.1451 12.6661 18.1551 10.0361 18.1551C7.40609 18.1551 7.03609 18.1551 6.03609 18.0951C5.37698 18.1075 4.72069 18.006 4.09609 17.7951C3.68188 17.6232 3.30745 17.3679 2.99609 17.0451C2.66418 16.7239 2.41094 16.3303 2.25609 15.8951C2.01195 15.2903 1.87654 14.6471 1.85609 13.9951C1.85609 12.9951 1.79609 12.6251 1.79609 9.99512C1.79609 7.36512 1.79609 6.99512 1.85609 5.99512C1.86058 5.34617 1.97904 4.70306 2.20609 4.09512C2.38214 3.67303 2.65236 3.29678 2.99609 2.99512C3.29991 2.65129 3.67538 2.37821 4.09609 2.19512C4.70564 1.97516 5.34809 1.8602 5.99609 1.85512C6.99609 1.85512 7.36609 1.79512 9.99609 1.79512C12.6261 1.79512 12.9961 1.79512 13.9961 1.85512C14.6309 1.8624 15.2598 1.97736 15.8561 2.19512C16.3105 2.36377 16.7184 2.63796 17.0461 2.99512C17.3738 3.3023 17.6299 3.67785 17.7961 4.09512C18.0183 4.70405 18.1334 5.3469 18.1361 5.99512C18.1861 6.99512 18.1961 7.36512 18.1961 9.99512C18.1961 12.6251 18.1861 12.9951 18.1361 13.9951ZM9.99609 4.86512C8.9819 4.86709 7.99106 5.16964 7.14875 5.73454C6.30644 6.29943 5.65047 7.10131 5.26373 8.03887C4.87698 8.97643 4.77682 10.0076 4.97589 11.002C5.17496 11.9965 5.66433 12.9097 6.38217 13.6261C7.10001 14.3425 8.0141 14.8301 9.00895 15.0273C10.0038 15.2244 11.0348 15.1222 11.9716 14.7337C12.9084 14.3451 13.709 13.6876 14.2722 12.8442C14.8355 12.0007 15.1361 11.0093 15.1361 9.99512C15.1374 9.32022 15.0053 8.65172 14.7473 8.02807C14.4894 7.40442 14.1107 6.83793 13.633 6.36117C13.1553 5.88441 12.588 5.5068 11.9639 5.25005C11.3397 4.9933 10.671 4.86248 9.99609 4.86512ZM9.99609 13.3251C9.33748 13.3251 8.69366 13.1298 8.14604 12.7639C7.59843 12.398 7.17161 11.8779 6.91957 11.2695C6.66753 10.661 6.60159 9.99142 6.73008 9.34547C6.85857 8.69951 7.17572 8.10616 7.64143 7.64045C8.10714 7.17474 8.70049 6.85759 9.34644 6.7291C9.9924 6.60061 10.662 6.66656 11.2704 6.9186C11.8789 7.17064 12.399 7.59745 12.7649 8.14507C13.1308 8.69268 13.3261 9.33651 13.3261 9.99512C13.3261 10.4324 13.24 10.8654 13.0726 11.2695C12.9053 11.6735 12.66 12.0406 12.3508 12.3498C12.0415 12.659 11.6744 12.9043 11.2704 13.0716C10.8664 13.239 10.4334 13.3251 9.99609 13.3251Z" fill="#666D80"/>
</svg>
